<svg width="550" height="433" viewBox="0 0 550 433" fill="none" xmlns="http://www.w3.org/2000/svg">
<ellipse cx="167" cy="216.5" rx="157" ry="156.5" fill="#FFEFF0"/>
<ellipse cx="333.5" cy="217" rx="196.5" ry="196" fill="#CFEDFE"/>
<path d="M234 214.5C234 159.554 278.778 115 334 115C389.222 115 434 159.554 434 214.5C434 269.446 389.222 314 334 314C278.778 314 234 269.446 234 214.5Z" fill="white"/>
<mask id="mask0_7839_118616" style="mask-type:alpha" maskUnits="userSpaceOnUse" x="305" y="173" width="66" height="87">
<path d="M346.022 173.043H311.988C308.685 173.043 305.982 175.71 305.982 178.969V254.03C305.982 257.29 308.685 259.956 311.988 259.956H364.04C367.344 259.956 370.046 257.29 370.046 254.03V196.747L346.022 173.043Z" fill="white"/>
</mask>
<g mask="url(#mask0_7839_118616)">
<path d="M346.022 173.043H311.988C308.685 173.043 305.982 175.71 305.982 178.969V254.03C305.982 257.29 308.685 259.956 311.988 259.956H364.04C367.344 259.956 370.046 257.29 370.046 254.03V196.747L356.032 186.87L346.022 173.043Z" fill="#0F9D58"/>
</g>
<mask id="mask1_7839_118616" style="mask-type:alpha" maskUnits="userSpaceOnUse" x="305" y="173" width="66" height="87">
<path d="M346.022 173.043H311.988C308.685 173.043 305.982 175.71 305.982 178.969V254.03C305.982 257.29 308.685 259.956 311.988 259.956H364.04C367.344 259.956 370.046 257.29 370.046 254.03V196.747L346.022 173.043Z" fill="white"/>
</mask>
<g mask="url(#mask1_7839_118616)">
<path d="M321.998 215.512V244.154H354.03V215.512H321.998ZM336.012 240.203H326.002V235.265H336.012V240.203ZM336.012 232.302H326.002V227.363H336.012V232.302ZM336.012 224.401H326.002V219.462H336.012V224.401ZM350.026 240.203H340.016V235.265H350.026V240.203ZM350.026 232.302H340.016V227.363H350.026V232.302ZM350.026 224.401H340.016V219.462H350.026V224.401Z" fill="#F1F1F1"/>
</g>
<mask id="mask2_7839_118616" style="mask-type:alpha" maskUnits="userSpaceOnUse" x="305" y="173" width="66" height="87">
<path d="M346.022 173.043H311.988C308.685 173.043 305.982 175.71 305.982 178.969V254.03C305.982 257.29 308.685 259.956 311.988 259.956H364.04C367.344 259.956 370.046 257.29 370.046 254.03V196.747L346.022 173.043Z" fill="white"/>
</mask>
<g mask="url(#mask2_7839_118616)">
<path d="M347.779 195.014L370.046 216.979V196.747L347.779 195.014Z" fill="url(#paint0_linear_7839_118616)"/>
</g>
<mask id="mask3_7839_118616" style="mask-type:alpha" maskUnits="userSpaceOnUse" x="305" y="173" width="66" height="87">
<path d="M346.022 173.043H311.988C308.685 173.043 305.982 175.71 305.982 178.969V254.03C305.982 257.29 308.685 259.956 311.988 259.956H364.04C367.344 259.956 370.046 257.29 370.046 254.03V196.747L346.022 173.043Z" fill="white"/>
</mask>
<g mask="url(#mask3_7839_118616)">
<path d="M346.021 173.043V190.821C346.021 194.095 348.709 196.747 352.027 196.747H370.045L346.021 173.043Z" fill="#87CEAC"/>
</g>
<mask id="mask4_7839_118616" style="mask-type:alpha" maskUnits="userSpaceOnUse" x="305" y="173" width="66" height="87">
<path d="M346.022 173.043H311.988C308.685 173.043 305.982 175.71 305.982 178.969V254.03C305.982 257.29 308.685 259.956 311.988 259.956H364.04C367.344 259.956 370.046 257.29 370.046 254.03V196.747L346.022 173.043Z" fill="white"/>
</mask>
<g mask="url(#mask4_7839_118616)">
<path d="M311.988 173.043C308.685 173.043 305.982 175.71 305.982 178.969V179.463C305.982 176.203 308.685 173.537 311.988 173.537H346.022V173.043H311.988Z" fill="white" fill-opacity="0.2"/>
</g>
<mask id="mask5_7839_118616" style="mask-type:alpha" maskUnits="userSpaceOnUse" x="305" y="173" width="66" height="87">
<path d="M346.022 173.043H311.988C308.685 173.043 305.982 175.71 305.982 178.969V254.03C305.982 257.29 308.685 259.956 311.988 259.956H364.04C367.344 259.956 370.046 257.29 370.046 254.03V196.747L346.022 173.043Z" fill="white"/>
</mask>
<g mask="url(#mask5_7839_118616)">
<path d="M364.04 259.462H311.988C308.685 259.462 305.982 256.795 305.982 253.536V254.03C305.982 257.289 308.685 259.956 311.988 259.956H364.04C367.344 259.956 370.046 257.289 370.046 254.03V253.536C370.046 256.795 367.344 259.462 364.04 259.462Z" fill="#263238" fill-opacity="0.2"/>
</g>
<mask id="mask6_7839_118616" style="mask-type:alpha" maskUnits="userSpaceOnUse" x="305" y="173" width="66" height="87">
<path d="M346.022 173.043H311.988C308.685 173.043 305.982 175.71 305.982 178.969V254.03C305.982 257.29 308.685 259.956 311.988 259.956H364.04C367.344 259.956 370.046 257.29 370.046 254.03V196.747L346.022 173.043Z" fill="white"/>
</mask>
<g mask="url(#mask6_7839_118616)">
<path d="M352.027 196.746C348.709 196.746 346.021 194.094 346.021 190.82V191.314C346.021 194.588 348.709 197.24 352.027 197.24H370.045V196.746H352.027Z" fill="#263238" fill-opacity="0.1"/>
</g>
<path d="M346.022 173.043H311.988C308.685 173.043 305.982 175.71 305.982 178.969V254.03C305.982 257.29 308.685 259.956 311.988 259.956H364.04C367.344 259.956 370.046 257.29 370.046 254.03V196.747L346.022 173.043Z" fill="url(#paint1_radial_7839_118616)"/>
<defs>
<linearGradient id="paint0_linear_7839_118616" x1="358.914" y1="196.9" x2="358.914" y2="216.982" gradientUnits="userSpaceOnUse">
<stop stop-color="#263238" stop-opacity="0.2"/>
<stop offset="1" stop-color="#263238" stop-opacity="0.02"/>
</linearGradient>
<radialGradient id="paint1_radial_7839_118616" cx="0" cy="0" r="1" gradientUnits="userSpaceOnUse" gradientTransform="translate(308.012 174.771) scale(103.302 101.925)">
<stop stop-color="white" stop-opacity="0.1"/>
<stop offset="1" stop-color="white" stop-opacity="0"/>
</radialGradient>
</defs>
</svg>
